<svg width="26" height="26" viewBox="0 0 26 26" fill="none" xmlns="http://www.w3.org/2000/svg">
<path d="M23.6239 10.8776H22.7513V10.8327H13.0013V15.166H19.1238C18.2306 17.6886 15.8304 19.4993 13.0013 19.4993C9.41168 19.4993 6.5013 16.589 6.5013 12.9993C6.5013 9.40972 9.41168 6.49935 13.0013 6.49935C14.6583 6.49935 16.1657 7.12443 17.3135 8.14547L20.3777 5.08127C18.4429 3.27806 15.8548 2.16602 13.0013 2.16602C7.01859 2.16602 2.16797 7.01664 2.16797 12.9993C2.16797 18.9821 7.01859 23.8327 13.0013 23.8327C18.984 23.8327 23.8346 18.9821 23.8346 12.9993C23.8346 12.273 23.7599 11.5639 23.6239 10.8776Z" fill="#FFC107"/>
<path d="M3.41797 7.95697L6.97726 10.5673C7.94034 8.18285 10.2728 6.49935 13.0022 6.49935C14.6592 6.49935 16.1666 7.12443 17.3144 8.14547L20.3786 5.08127C18.4438 3.27806 15.8557 2.16602 13.0022 2.16602C8.84114 2.16602 5.23255 4.51522 3.41797 7.95697Z" fill="#FF3D00"/>
<path d="M12.9998 23.8327C15.7981 23.8327 18.3407 22.7619 20.2631 21.0204L16.9101 18.1831C15.8225 19.007 14.4705 19.4994 12.9998 19.4994C10.1821 19.4994 7.78955 17.7027 6.88822 15.1953L3.35547 17.9172C5.14839 21.4256 8.78947 23.8327 12.9998 23.8327Z" fill="#4CAF50"/>
<path d="M23.6226 10.8789H22.75V10.834H13V15.1673H19.1225C18.6935 16.379 17.914 17.4239 16.9087 18.1849C16.9092 18.1844 16.9097 18.1844 16.9103 18.1839L20.2632 21.0211C20.026 21.2367 23.8333 18.4173 23.8333 13.0007C23.8333 12.2743 23.7586 11.5652 23.6226 10.8789Z" fill="#1976D2"/>
</svg>
