<svg xmlns="http://www.w3.org/2000/svg" xmlns:xlink="http://www.w3.org/1999/xlink" width="36" height="36" preserveAspectRatio="xMidYMid meet" viewBox="0 0 36 36" style="-ms-transform: rotate(360deg); -webkit-transform: rotate(360deg); transform: rotate(360deg);"><path fill="#D99E82" d="M14 20c0 4.418-2 12.562-13.062 13C3.562 29.125 0 24.418 0 20c0-4.418 2.582-8 7-8s7 3.582 7 8z"/><path fill="#C1694F" d="M7.997 21.582c0-.028.003-.053.003-.082V18h.542c2.93 0 5.449 2.5 5.449 2.5c0-.553-2.157-4.5-5.741-4.5H8V9a1 1 0 0 0-2 0v7h-.541C1.876 16 .015 19.947.015 20.5c0 0 2.223-2.5 5.152-2.5H6v2.042c0 .393-.02.749-.032 1.12l-.431-.009C1.954 21.083 1.011 24.52 1 25.072c0 0 1.277-1.983 4.206-1.925l.634.013a22.981 22.981 0 0 1-.453 2.837c-1.737.379-3.27 1.81-3.36 2.197c0 0 1.87-.487 2.864-.423C3.401 32.095.938 33 .938 33c.371 0 3.43-.973 5.398-4.45l.379.179c.82.489 1.745 2.217 1.745 2.217c.186-.396.138-2.914-1.294-4.241c.321-.905.565-1.931.702-3.094c2.711.79 4.223 3.659 4.223 3.659c.128-.53-.741-4.749-4.094-5.688z"/><path fill="#D99E82" d="M15.675 17.283c0 6.339 2.87 18.027 18.745 18.655c-3.767-5.56 1.346-12.315 1.346-18.655c0-6.341-3.706-11.48-10.045-11.48c-6.341-.001-10.046 5.139-10.046 11.48z"/><path fill="#C1694F" d="M28.296 21.8c4.201-.084 6.034 2.762 6.034 2.762c-.017-.793-1.367-5.725-6.511-5.624l-.792.016A52.437 52.437 0 0 1 27 17.343V15h1.349c4.205 0 7.394 3.023 7.394 3.023c0-.793-2.668-6.023-7.811-6.023H27V1.498c0-.792-.708-1.435-1.5-1.435c-.793 0-1.5.643-1.5 1.435V12h-.073c-5.144 0-8.238 5.229-8.238 6.023c0 0 3.616-3.023 7.821-3.023H24v4.435c0 .072.004.14.005.211c-4.573 1.502-5.77 7.325-5.589 8.068c0 0 2.062-3.917 5.771-5.163c.209 1.724.586 3.239 1.077 4.566c-1.843 1.948-1.896 5.322-1.638 5.872c0 0 1.324-2.479 2.503-3.181l.323-.152c2.846 4.915 7.217 6.281 7.746 6.281c0 0-3.507-1.288-5.625-7.495c1.37-.165 4.282.598 4.282.598c-.131-.567-2.44-2.723-5.012-3.2a33.693 33.693 0 0 1-.632-4.02l1.085-.02z"/><rect x="0" y="0" width="36" height="36" fill="rgba(0, 0, 0, 0)" /></svg>