<svg width="43" height="47" viewBox="0 0 43 47" fill="none" xmlns="http://www.w3.org/2000/svg">
<path d="M15.2422 17.7665C15.2422 15.1362 17.3464 13.0039 19.9422 13.0039H37.3807C39.9764 13.0039 42.0806 15.1362 42.0806 17.7665V42.2366C42.0806 44.867 39.9764 46.9993 37.3807 46.9993H19.9422C17.3464 46.9993 15.2422 44.867 15.2422 42.2366V17.7665Z" fill="#D3EACD"/>
<path d="M4.50781 8.81927C4.50781 6.18894 6.61206 4.05664 9.20778 4.05664H26.6463C29.242 4.05664 31.3463 6.18895 31.3463 8.81928V33.2894C31.3463 35.9197 29.242 38.052 26.6463 38.052H9.20779C6.61206 38.052 4.50781 35.9197 4.50781 33.2894V8.81927Z" fill="#5BC36E"/>
<path fill-rule="evenodd" clip-rule="evenodd" d="M9.29634 0.478516H26.5506C31.1735 0.478516 34.9211 4.27393 34.9211 8.95582V33.1535C34.9211 37.8354 31.1735 41.6308 26.5506 41.6308H9.29634C4.67342 41.6308 0.925781 37.8354 0.925781 33.1535V8.95582C0.925781 4.27393 4.67341 0.478516 9.29634 0.478516ZM9.29634 4.24621C6.72804 4.24621 4.64603 6.35477 4.64603 8.95582V33.1535C4.64603 35.7545 6.72805 37.8631 9.29634 37.8631H26.5506C29.1189 37.8631 31.2009 35.7545 31.2009 33.1535V8.95582C31.2009 6.35477 29.1189 4.24621 26.5506 4.24621H9.29634Z" fill="white"/>
<path d="M25.0343 17.2716L25.2186 17.2847C25.2296 17.2855 25.2392 17.2927 25.2432 17.3029C27.3512 22.7483 22.6143 28.6046 16.7599 28.3938L16.4627 28.3661C14.5375 22.668 19.0347 16.8471 25.0343 17.2716Z" fill="#5BC36E"/>
<path fill-rule="evenodd" clip-rule="evenodd" d="M24.4201 18.3565C25.5635 22.6229 21.9909 27.142 17.3016 27.2887C16.2571 22.7528 19.7284 18.3537 24.4201 18.3565ZM26.2708 16.9031C26.1146 16.4996 25.7376 16.2119 25.2921 16.1804L26.2708 16.9031ZM25.2921 16.1804L25.2913 16.1804L25.2921 16.1804ZM26.2708 16.9031C28.7075 23.1975 23.2453 29.7349 16.7154 29.4997L16.684 29.4986L15.6396 29.4014L15.4094 28.7202C13.2312 22.273 18.5031 15.7 25.2913 16.1804" fill="white"/>
<path d="M16.1241 29.1071L15.8571 28.9148C10.1568 24.809 10.2952 15.1026 16.1094 11.2193C16.1185 11.2133 16.1298 11.2134 16.1389 11.2195C21.9906 15.1439 22.1264 24.7838 16.3826 28.9209L16.1241 29.1071Z" fill="#5BC36E"/>
<path fill-rule="evenodd" clip-rule="evenodd" d="M16.1143 28.2443C10.8192 24.756 10.8662 17.1038 16.1139 13.6562C21.4035 17.1325 21.4495 24.7278 16.1143 28.2443ZM16.7039 11.3694C24.1469 15.5737 24.3215 25.9174 17.0136 30.351L16.1145 30.8964L15.2059 30.3451C7.94808 25.942 8.1243 15.5328 15.5271 11.3683C15.8976 11.1599 16.3459 11.1672 16.7039 11.3694Z" fill="white"/>
</svg>
